<svg xmlns="http://www.w3.org/2000/svg" width="160" height="88" viewBox="0 0 160 88" fill="none">
  <path d="M39 7.67883C41.0366 7.58184 42.766 6.78971 44.1884 5.30244C45.6107 3.81517 46.3219 2.05308 46.3219 0C46.3219 2.05308 47.0331 3.81517 48.4555 5.30244C49.8778 6.78971 51.6073 7.56567 53.66 7.67883C52.3185 7.7435 51.0901 8.11531 49.9586 8.82662C48.8434 9.52175 47.9544 10.4594 47.2917 11.6233C46.6452 12.7873 46.3219 14.0321 46.3219 15.39C46.3219 13.3369 45.6107 11.5587 44.1884 10.0714C42.766 8.56796 41.0366 7.77583 39 7.67883Z" fill="white"/>
  <path d="M20 76.4926C20.9724 76.4485 21.7982 76.0882 22.4774 75.4118C23.1566 74.7353 23.4961 73.9338 23.4961 73C23.4961 73.9338 23.8357 74.7353 24.5149 75.4118C25.194 76.0882 26.0198 76.4412 27 76.4926C26.3594 76.5221 25.7729 76.6912 25.2326 77.0147C24.7001 77.3309 24.2756 77.7574 23.9592 78.2868C23.6505 78.8162 23.4961 79.3824 23.4961 80C23.4961 79.0662 23.1566 78.2574 22.4774 77.5809C21.7982 76.8971 20.9724 76.5368 20 76.4926Z" fill="white"/>
  <path d="M41 55.4968C41.4168 55.4779 41.7707 55.3235 42.0617 55.0336C42.3528 54.7437 42.4983 54.4002 42.4983 54C42.4983 54.4002 42.6439 54.7437 42.935 55.0336C43.226 55.3235 43.5799 55.4748 44 55.4968C43.7255 55.5095 43.4741 55.5819 43.2426 55.7206C43.0143 55.8561 42.8324 56.0389 42.6968 56.2658C42.5645 56.4926 42.4983 56.7353 42.4983 57C42.4983 56.5998 42.3528 56.2532 42.0617 55.9632C41.7707 55.6702 41.4168 55.5158 41 55.4968Z" fill="white"/>
  <path d="M0 24.9916C1.11136 24.9412 2.05513 24.5294 2.83131 23.7563C3.6075 22.9832 3.99559 22.0672 3.99559 21C3.99559 22.0672 4.38368 22.9832 5.15987 23.7563C5.93605 24.5294 6.87982 24.9328 8 24.9916C7.26792 25.0252 6.59757 25.2185 5.98015 25.5882C5.37155 25.9496 4.88644 26.437 4.52481 27.042C4.172 27.6471 3.99559 28.2941 3.99559 29C3.99559 27.9328 3.6075 27.0084 2.83131 26.2353C2.05513 25.4538 1.11136 25.042 0 24.9916Z" fill="white"/>
  <path d="M91 75.9916C92.1114 75.9412 93.0551 75.5294 93.8313 74.7563C94.6075 73.9832 94.9956 73.0672 94.9956 72C94.9956 73.0672 95.3837 73.9832 96.1599 74.7563C96.9361 75.5294 97.8798 75.9328 99 75.9916C98.2679 76.0252 97.5976 76.2185 96.9802 76.5882C96.3716 76.9496 95.8864 77.437 95.5248 78.042C95.172 78.6471 94.9956 79.2941 94.9956 80C94.9956 78.9328 94.6075 78.0084 93.8313 77.2353C93.0551 76.4538 92.1114 76.042 91 75.9916Z" fill="white"/>
  <path d="M117 44.9958C117.556 44.9706 118.028 44.7647 118.416 44.3782C118.804 43.9916 118.998 43.5336 118.998 43C118.998 43.5336 119.192 43.9916 119.58 44.3782C119.968 44.7647 120.44 44.9664 121 44.9958C120.634 45.0126 120.299 45.1092 119.99 45.2941C119.686 45.4748 119.443 45.7185 119.262 46.021C119.086 46.3235 118.998 46.6471 118.998 47C118.998 46.4664 118.804 46.0042 118.416 45.6176C118.028 45.2269 117.556 45.021 117 44.9958Z" fill="white"/>
  <path d="M83 27.9916C84.1114 27.9412 85.0551 27.5294 85.8313 26.7563C86.6075 25.9832 86.9956 25.0672 86.9956 24C86.9956 25.0672 87.3837 25.9832 88.1599 26.7563C88.9361 27.5294 89.8798 27.9328 91 27.9916C90.2679 28.0252 89.5976 28.2185 88.9802 28.5882C88.3716 28.9496 87.8864 29.437 87.5248 30.042C87.172 30.6471 86.9956 31.2941 86.9956 32C86.9956 30.9328 86.6075 30.0084 85.8313 29.2353C85.0551 28.4538 84.1114 28.042 83 27.9916Z" fill="white"/>
  <path d="M136 78.9811C138.501 78.8676 140.624 77.9412 142.37 76.2017C144.117 74.4622 144.99 72.4013 144.99 70C144.99 72.4013 145.863 74.4622 147.61 76.2017C149.356 77.9412 151.48 78.8487 154 78.9811C152.353 79.0567 150.845 79.4916 149.455 80.3235C148.086 81.1366 146.994 82.2332 146.181 83.5945C145.387 84.9559 144.99 86.4118 144.99 88C144.99 85.5987 144.117 83.5189 142.37 81.7794C140.624 80.021 138.501 79.0945 136 78.9811Z" fill="white"/>
  <path d="M149 37.4884C150.528 37.4191 151.826 36.8529 152.893 35.7899C153.96 34.7269 154.494 33.4674 154.494 32C154.494 33.4674 155.028 34.7269 156.095 35.7899C157.162 36.8529 158.46 37.4076 160 37.4884C158.993 37.5347 158.072 37.8004 157.223 38.3088C156.386 38.8057 155.719 39.4758 155.222 40.3078C154.736 41.1397 154.494 42.0294 154.494 43C154.494 41.5326 153.96 40.2616 152.893 39.1985C151.826 38.1239 150.528 37.5578 149 37.4884Z" fill="white"/>
</svg>
